<svg width="406" height="203" viewBox="0 0 406 203" fill="none" xmlns="http://www.w3.org/2000/svg">
<path d="M176.034 100.756C176.034 146.012 136.628 182.7 88.0171 182.7C39.4065 182.7 0 146.012 0 100.756C0 55.4988 39.4065 18.811 88.0171 18.811C136.628 18.811 176.034 55.4988 176.034 100.756Z" fill="#51AF5B"/>
<path d="M44.2002 20.7254C61.5275 12.4797 81.1218 9.28643 100.428 11.5622C119.733 13.838 137.855 21.4773 152.428 33.4836C167.001 45.4898 177.35 61.3064 182.124 78.8695C186.899 96.4331 185.879 114.928 179.196 131.944L88.2658 100.987L44.2002 20.7254Z" fill="#44924C"/>
<path d="M270.575 103.023C270.575 110.703 268.128 116.586 263.236 120.671C258.367 124.756 251.325 126.799 242.11 126.799H227.36V80.1396H243.713C252.215 80.1396 258.818 82.1502 263.521 86.1716C268.223 90.1926 270.575 95.8096 270.575 103.023ZM259.103 103.278C259.103 93.2567 254.163 88.2458 244.283 88.2458H238.404V118.629H243.143C253.783 118.629 259.103 113.512 259.103 103.278Z" fill="#333333"/>
<path d="M292.413 102.097H296.047C299.443 102.097 301.985 101.501 303.671 100.31C305.357 99.097 306.201 97.3415 306.201 95.0439C306.201 92.7248 305.488 91.0119 304.063 89.9056C302.662 88.7992 300.453 88.2458 297.437 88.2458H292.413V102.097ZM317.352 94.6927C317.352 99.7141 315.594 103.554 312.079 106.214C308.587 108.873 303.612 110.203 297.152 110.203H292.413V126.799H281.369V80.1396H298.007C304.324 80.1396 309.122 81.3629 312.399 83.8099C315.701 86.2353 317.352 89.8629 317.352 94.6927Z" fill="#333333"/>
<path d="M363.096 126.799H352.23V105.959C352.23 100.81 350.093 98.2359 345.818 98.2359C342.778 98.2359 340.581 99.1612 339.227 101.012C337.873 102.863 337.196 105.863 337.196 110.012V126.799H326.33V77.1401H337.196V87.2572C337.196 88.0445 337.113 89.8954 336.947 92.8101L336.697 95.6826H337.267C339.69 92.1934 343.538 90.4484 348.81 90.4484C353.489 90.4484 357.04 91.5763 359.463 93.8316C361.885 96.0869 363.096 99.3207 363.096 103.533V126.799Z" fill="#333333"/>
<path d="M373.817 81.8956C373.817 78.7252 375.788 77.1401 379.731 77.1401C383.674 77.1401 385.645 78.7252 385.645 81.8956C385.645 83.4059 385.146 84.587 384.149 85.438C383.175 86.2678 381.702 86.6828 379.731 86.6828C375.788 86.6828 373.817 85.0868 373.817 81.8956ZM385.146 126.799H374.28V91.1187H385.146V126.799Z" fill="#333333"/>
<path d="M44.8995 125.554C38.5073 125.554 33.478 123.33 29.8115 118.883C26.1774 114.436 24.3604 108.274 24.3604 100.397C24.3604 92.4034 26.2098 86.1831 29.9088 81.7358C33.6403 77.2592 38.7669 75.0213 45.2888 75.0213C52.1352 75.0213 57.3592 77.4046 60.9608 82.1718H61.4476C60.7014 78.5385 60.3283 75.2974 60.3283 72.4489V56.8398H75.2212V124.682H63.8325L60.9608 118.36H60.3283C56.9536 123.156 51.8108 125.554 44.8995 125.554ZM50.1072 114.959C53.9033 114.959 56.6779 113.971 58.4298 111.995C60.2146 110.018 61.1878 106.661 61.3502 101.923V100.484C61.3502 95.2519 60.4416 91.5021 58.6247 89.235C56.8399 86.9679 53.9196 85.8343 49.8641 85.8343C46.5543 85.8343 43.9746 87.0986 42.1253 89.6272C40.3082 92.1273 39.3996 95.7748 39.3996 100.571C39.3996 105.367 40.3244 108.971 42.174 111.384C44.0233 113.768 46.6676 114.959 50.1072 114.959Z" fill="white"/>
<path d="M143.164 98.9578C143.164 94.4232 142.402 90.9499 140.877 88.5374C139.352 86.0957 137.129 84.8749 134.209 84.8749C132.36 84.8749 130.916 85.4563 129.877 86.6191C128.839 87.7526 128.32 89.729 128.32 92.5487V115.134C132.765 114.785 136.351 113.128 139.076 110.163C141.802 107.198 143.164 103.463 143.164 98.9578ZM114.546 146.133V125.205C105.623 124.333 98.8744 121.79 94.2991 117.575C89.7239 113.331 87.4365 107.634 87.4365 100.484C87.4365 95.9786 88.3289 91.6474 90.1133 87.4907C91.8981 83.3053 94.7372 79.0906 98.6308 74.8467L109.387 81.1251C106.467 84.6715 104.407 87.956 103.206 90.9791C102.005 93.9729 101.405 97.2282 101.405 100.745C101.405 108.826 105.785 113.622 114.546 115.134V92.6356C114.546 87.2585 116.282 83.0146 119.754 79.9042C123.226 76.765 127.979 75.1954 134.014 75.1954C141.315 75.1954 147.042 77.3176 151.195 81.5611C155.349 85.805 157.425 91.5747 157.425 98.8705C157.425 103.841 156.208 108.23 153.775 112.038C151.374 115.817 147.967 118.84 143.554 121.107C139.174 123.345 134.096 124.711 128.32 125.205V146.133H114.546Z" fill="white"/>
</svg>
